<svg width="32" height="32" viewBox="0 0 32 32" fill="none" xmlns="http://www.w3.org/2000/svg">
<path d="M23 6C24.7 8.3 21.2 8.3 23 11M16 27C29.5 27 29.2 25.2 28.9 21.4C28.6 17.2 24 14 16 14C8 14 3.4 17.2 3.1 21.4C2.8 25.2 2.5 27 16 27ZM16 19C16 17.5 16.1 15.8 17 14L16 19ZM10 19C10 17.5 10.1 16.4 11 14.7L10 19ZM22 19C22 17.7 22.1 16.6 22.8 15.1L22 19ZM16 5C17.7 7.3 14.2 7.3 16 10V5ZM9 6C10.7 8.3 7.2 8.3 9 11V6Z" stroke="#21A300" stroke-width="2" stroke-miterlimit="10" stroke-linecap="round" stroke-linejoin="round"/>
</svg>
