<svg width="3" height="11" viewBox="0 0 3 11" fill="none" xmlns="http://www.w3.org/2000/svg">
<path d="M-2.43932e-05 8.68969C-2.43932e-05 8.49635 0.0333089 8.31635 0.0999756 8.14969C0.173309 7.97635 0.269976 7.82635 0.389976 7.69969C0.516642 7.57302 0.663309 7.47302 0.829976 7.39969C1.00331 7.32635 1.18664 7.28969 1.37998 7.28969C1.57331 7.28969 1.75331 7.32635 1.91998 7.39969C2.09331 7.47302 2.24331 7.57302 2.36998 7.69969C2.49664 7.82635 2.59664 7.97635 2.66998 8.14969C2.74331 8.31635 2.77998 8.49635 2.77998 8.68969C2.77998 8.88969 2.74331 9.07302 2.66998 9.23969C2.59664 9.40635 2.49664 9.55302 2.36998 9.67969C2.24331 9.80635 2.09331 9.90302 1.91998 9.96969C1.75331 10.043 1.57331 10.0797 1.37998 10.0797C1.18664 10.0797 1.00331 10.043 0.829976 9.96969C0.663309 9.90302 0.516642 9.80635 0.389976 9.67969C0.269976 9.55302 0.173309 9.40635 0.0999756 9.23969C0.0333089 9.07302 -2.43932e-05 8.88969 -2.43932e-05 8.68969ZM-2.43932e-05 1.39969C-2.43932e-05 1.20635 0.0333089 1.02635 0.0999756 0.859687C0.173309 0.686354 0.269976 0.536354 0.389976 0.409687C0.516642 0.28302 0.663309 0.18302 0.829976 0.109687C1.00331 0.0363538 1.18664 -0.000312805 1.37998 -0.000312805C1.57331 -0.000312805 1.75331 0.0363538 1.91998 0.109687C2.09331 0.18302 2.24331 0.28302 2.36998 0.409687C2.49664 0.536354 2.59664 0.686354 2.66998 0.859687C2.74331 1.02635 2.77998 1.20635 2.77998 1.39969C2.77998 1.59969 2.74331 1.78302 2.66998 1.94969C2.59664 2.11635 2.49664 2.26302 2.36998 2.38969C2.24331 2.51635 2.09331 2.61635 1.91998 2.68969C1.75331 2.75635 1.57331 2.78969 1.37998 2.78969C1.18664 2.78969 1.00331 2.75635 0.829976 2.68969C0.663309 2.61635 0.516642 2.51635 0.389976 2.38969C0.269976 2.26302 0.173309 2.11635 0.0999756 1.94969C0.0333089 1.78302 -2.43932e-05 1.59969 -2.43932e-05 1.39969Z" fill="white" fill-opacity="0.87"/>
</svg>
