<svg width="32" height="32" viewBox="0 0 32 32" fill="none" xmlns="http://www.w3.org/2000/svg">
<path d="M9.2798 27.6006C11.754 27.6006 13.7598 25.5949 13.7598 23.1206C13.7598 20.6464 11.754 18.6406 9.2798 18.6406C6.80557 18.6406 4.7998 20.6464 4.7998 23.1206C4.7998 25.5949 6.80557 27.6006 9.2798 27.6006Z" stroke="#00A372" stroke-width="1.7" stroke-miterlimit="10"/>
<path d="M25.7998 13.6008H18.5998C18.1198 13.6008 17.7998 13.2808 17.7998 12.8008V5.60078C17.7998 5.12078 18.1198 4.80078 18.5998 4.80078H25.7998C26.2798 4.80078 26.5998 5.12078 26.5998 5.60078V12.8008C26.5998 13.2808 26.2798 13.6008 25.7998 13.6008Z" stroke="#00A372" stroke-width="1.7" stroke-miterlimit="10"/>
<path d="M25.7997 27.5987C25.6397 27.5987 25.4797 27.5987 25.3197 27.4387L17.9597 20.0787C17.6397 19.7587 17.6397 19.2788 17.9597 18.9587C18.2797 18.6388 18.7597 18.6388 19.0797 18.9587L26.4397 26.3187C26.7597 26.6387 26.7597 27.1187 26.4397 27.4387C26.2797 27.5987 26.1197 27.5987 25.7997 27.5987Z" fill="#00A372"/>
<path d="M18.4396 27.5987C18.5996 27.5987 18.7596 27.5987 18.9196 27.4387L26.2796 20.0787C26.5996 19.7587 26.5996 19.2788 26.2796 18.9587C25.9596 18.6388 25.4796 18.6388 25.1596 18.9587L17.7996 26.3187C17.4796 26.6387 17.4796 27.1187 17.7996 27.4387C18.1196 27.5987 18.2796 27.5987 18.4396 27.5987Z" fill="#00A372"/>
<path d="M12.96 13.5999H5.59999C4.95999 13.5999 4.63999 13.1199 4.79999 12.6399L8.47999 5.27992C8.79999 4.79992 9.59999 4.79992 9.75999 5.27992L13.44 12.6399C13.76 13.1199 13.44 13.5999 12.96 13.5999Z" stroke="#00A372" stroke-width="1.7" stroke-miterlimit="10"/>
</svg>
