<svg width="32" height="32" viewBox="0 0 32 32" fill="none" xmlns="http://www.w3.org/2000/svg">
<path d="M11.1539 4.00391C7.21929 4.00391 4.0018 7.18987 4.00181 11.1052C4.03934 12.0788 4.20143 13.1663 4.40023 14.0075H2.99599C1.63244 13.9772 1.63244 16.0379 2.99599 16.0073H5.02521C6.77759 20.5612 10.699 25.1142 15.5092 27.8683C15.8156 28.0425 16.191 28.0425 16.4974 27.8683C19.6774 26.0475 22.5124 23.3161 24.5811 20.3255C25.5508 18.9237 26.3472 17.4649 26.9306 16.0073H29.0028C30.3663 16.0375 30.3663 13.9769 29.0028 14.0075H27.5849C27.8492 12.9991 27.9856 12.0589 27.9989 11.1052C27.9989 7.18987 24.7795 4.00391 20.8449 4.00391C19.0134 4.00391 17.2915 4.70017 15.9935 5.88864C14.6966 4.70312 12.9837 4.00391 11.1539 4.00391ZM11.1539 6.00582C12.7475 6.00582 14.2159 6.72534 15.1772 7.91581C15.5501 8.37784 16.241 8.41514 16.6615 7.99597C17.9014 6.90698 19.4473 6.02853 20.8449 6.00582C23.6609 6.00582 25.9181 8.20719 25.9912 10.9684C25.9284 12.0386 25.764 13.1419 25.5088 14.0075H21.0011C20.7361 14.0055 20.4811 14.1087 20.2922 14.2947L19.2727 15.3142L17.8938 12.5604C17.5246 11.8259 16.476 11.8259 16.1068 12.5604L15.1029 14.5681L13.9291 11.6307C13.7762 11.2479 13.4039 10.9983 12.9917 11.0019C12.6583 11.0052 12.3485 11.1742 12.1655 11.453L10.4664 14.0076H6.51538C6.22992 12.9431 6.03775 11.8981 6.0115 10.9237C6.10789 8.18364 8.35325 6.00593 11.1539 6.00593V6.00582ZM12.7769 14.1402L14.0698 17.3726C14.3878 18.174 15.5032 18.2242 15.892 17.4546L16.9993 15.2399L18.1067 17.4546C18.4129 18.0643 19.2262 18.1952 19.7082 17.7123L21.4132 16.0073H24.749C24.2677 17.0671 23.6577 18.1435 22.9347 19.1888C21.1564 21.7594 18.6532 24.0248 16.0033 25.669C12.1792 23.296 8.98003 19.5733 7.30051 16.0073H10.9976C11.3345 16.0073 11.6487 15.8376 11.8335 15.5561L12.7769 14.1402Z" fill="#00A3A3"/>
</svg>
