<svg width="32" height="32" viewBox="0 0 32 32" fill="none" xmlns="http://www.w3.org/2000/svg">
<path d="M25.8435 26.7222C25.5985 26.7222 25.355 26.6412 25.1555 26.4837L17.335 20.3427C17.0665 20.1317 16.9095 19.8092 16.9095 19.4677V9.26867C16.9095 8.92667 17.066 8.60417 17.3345 8.39367L25.155 2.25117C25.4905 1.98867 25.946 1.93917 26.33 2.12567C26.713 2.31167 26.956 2.70017 26.956 3.12667V25.6092C26.956 26.0352 26.713 26.4242 26.33 26.6102C26.175 26.6852 26.0085 26.7222 25.8435 26.7222ZM19.1355 18.9262L24.73 23.3197V5.41617L19.1355 9.81017V18.9262Z" fill="#A30089"/>
<path d="M18.0225 20.5531H6.186C2.775 20.5531 0 17.7786 0 14.3671C0 10.9566 2.775 8.18164 6.186 8.18164H18.0225C18.637 8.18164 19.1355 8.67964 19.1355 9.29514V19.4401C19.1355 20.0546 18.637 20.5531 18.0225 20.5531ZM6.186 10.4076C4.0025 10.4076 2.226 12.1836 2.226 14.3671C2.226 16.5506 4.0025 18.3271 6.186 18.3271H16.9095V10.4076H6.186Z" fill="#A30089"/>
<path d="M8.59197 29.9861C7.86597 29.9861 7.15497 29.7756 6.53247 29.3691C5.68647 28.8171 5.10597 27.9681 4.89797 26.9806L3.29047 19.3376C3.16397 18.7361 3.54897 18.1456 4.15047 18.0191C4.75347 17.8921 5.34247 18.2781 5.46897 18.8791L7.07697 26.5221C7.16247 26.9286 7.40097 27.2776 7.74997 27.5056C8.09747 27.7321 8.51247 27.8116 8.91897 27.7251C9.75697 27.5476 10.296 26.7201 10.1195 25.8826L8.81247 19.6681C8.68597 19.0666 9.07147 18.4766 9.67297 18.3496C10.275 18.2236 10.8645 18.6086 10.991 19.2101L12.298 25.4241C12.7265 27.4611 11.4175 29.4706 9.37997 29.9031C9.11697 29.9586 8.85297 29.9861 8.59197 29.9861ZM27.566 18.8011H25.8425C25.228 18.8011 24.7295 18.3031 24.7295 17.6876C24.7295 17.0731 25.228 16.5746 25.8425 16.5746H27.566C28.1555 16.5746 28.7095 16.3456 29.125 15.9296C29.5435 15.5116 29.774 14.9566 29.774 14.3661C29.774 13.1481 28.7835 12.1581 27.566 12.1581H25.8425C25.228 12.1581 24.7295 11.6596 24.7295 11.0446C24.7295 10.4296 25.228 9.93164 25.8425 9.93164H27.566C30.011 9.93164 32 11.9206 32 14.3656C32 15.5501 31.538 16.6646 30.699 17.5036C29.863 18.3411 28.75 18.8011 27.566 18.8011Z" fill="#A30089"/>
</svg>
