<svg width="32" height="32" viewBox="0 0 32 32" fill="none" xmlns="http://www.w3.org/2000/svg">
<g clip-path="url(#clip0_998_5966)">
<path d="M25.3333 6.66992H22.6667C21.196 6.66992 20 7.86592 20 9.33659V13.3366H12V9.33659C12 7.86592 10.804 6.66992 9.33333 6.66992H6.66667C5.196 6.66992 4 7.86592 4 9.33659V20.0033C4 21.4739 5.196 22.6699 6.66667 22.6699H9.33333C10.804 22.6699 12 21.4739 12 20.0033V16.0033H20V20.0033C20 21.4739 21.196 22.6699 22.6667 22.6699H25.3333C26.804 22.6699 28 21.4739 28 20.0033V9.33659C28 7.86592 26.804 6.66992 25.3333 6.66992ZM6.66667 20.0033V9.33659H9.33333L9.33467 20.0033H6.66667ZM22.6667 20.0033V9.33659H25.3333L25.3347 20.0033H22.6667ZM29.3333 12.0033H32V17.3366H29.3333V12.0033ZM0 12.0033H2.66667V17.3366H0V12.0033Z" fill="#00A32F"/>
</g>
<defs>
<clipPath id="clip0_998_5966">
<rect width="32" height="32.0027" fill="white"/>
</clipPath>
</defs>
</svg>
