<svg width="32" height="32" viewBox="0 0 32 32" fill="none" xmlns="http://www.w3.org/2000/svg">
<path d="M28.6533 13.5874L27.32 12.8541L15.32 6.18742H15.1733C15.0916 6.15286 15.0068 6.12608 14.92 6.10742H14.6667H14.4267C14.3356 6.12609 14.2463 6.15286 14.16 6.18742H14.0133L2.01333 12.8541C1.80814 12.9704 1.63746 13.139 1.51871 13.3428C1.39997 13.5466 1.3374 13.7782 1.3374 14.0141C1.3374 14.2499 1.39997 14.4816 1.51871 14.6854C1.63746 14.8892 1.80814 15.0578 2.01333 15.1741L5.33333 17.0141V23.3341C5.33333 24.395 5.75476 25.4124 6.50491 26.1625C7.25505 26.9127 8.27247 27.3341 9.33333 27.3341H20C21.0609 27.3341 22.0783 26.9127 22.8284 26.1625C23.5786 25.4124 24 24.395 24 23.3341V17.0141L26.6667 15.5208V19.3341C26.6667 19.6877 26.8071 20.0268 27.0572 20.2769C27.3072 20.5269 27.6464 20.6674 28 20.6674C28.3536 20.6674 28.6928 20.5269 28.9428 20.2769C29.1929 20.0268 29.3333 19.6877 29.3333 19.3341V14.7474C29.3329 14.5112 29.2697 14.2793 29.1503 14.0754C29.0308 13.8716 28.8593 13.7032 28.6533 13.5874ZM21.3333 23.3341C21.3333 23.6877 21.1929 24.0269 20.9428 24.2769C20.6928 24.5269 20.3536 24.6674 20 24.6674H9.33333C8.97971 24.6674 8.64057 24.5269 8.39052 24.2769C8.14048 24.0269 8 23.6877 8 23.3341V18.4941L14.0133 21.8274L14.2133 21.9074H14.3333C14.444 21.9214 14.556 21.9214 14.6667 21.9074C14.7773 21.9214 14.8893 21.9214 15 21.9074H15.12C15.1908 21.8925 15.2585 21.8654 15.32 21.8274L21.3333 18.4941V23.3341ZM14.6667 19.1474L5.41333 14.0008L14.6667 8.85409L23.92 14.0008L14.6667 19.1474Z" fill="#0055A3"/>
</svg>
