<svg width="30" height="26" viewBox="0 0 30 26" fill="none" xmlns="http://www.w3.org/2000/svg">
<path d="M10.9994 0C9.3548 0 7.99372 1.36113 7.99372 3.0057V4.00175H2.99789C1.35269 4.00175 0 5.36031 0 7.0055V9.00539C0 10.1413 0.642382 11.1787 1.65421 11.6849C1.76696 11.7413 1.87933 11.7984 1.99208 11.8549V23.0008C1.99208 24.6454 3.35318 26.0065 4.99779 26.0065H24.9928C26.6374 26.0065 27.9985 24.6454 27.9985 23.0008V11.8549C28.1118 11.7982 28.2251 11.7416 28.3384 11.6849C29.3503 11.1788 29.9906 10.1413 29.9906 9.00539V7.0055C29.9906 5.36031 28.6399 4.00175 26.9947 4.00175H21.9969V3.0057C21.9969 1.36113 20.6378 0 18.9932 0H10.9994ZM10.9994 1.9999H18.9932C19.5645 1.9999 19.997 2.43442 19.997 3.0057V4.00175H9.99362V3.0057C9.99362 2.43442 10.4281 1.9999 10.9994 1.9999ZM2.99789 6.00164H26.9947C27.5592 6.00164 27.9985 6.44098 27.9985 7.0055V9.00539C27.9985 9.38355 27.7801 9.72879 27.438 9.89988C23.4398 11.9002 19.4407 13.8983 15.4426 15.8996C15.1584 16.0417 14.8322 16.0417 14.5481 15.8996C10.5499 13.8983 6.55276 11.9002 2.55455 9.89988C2.21239 9.72867 1.99208 9.38355 1.99208 9.00539V7.0055C1.99208 6.44098 2.43338 6.00164 2.99789 6.00164ZM14.9953 12.0033C14.4431 12.0033 13.9954 12.451 13.9954 13.0032C13.9954 13.5555 14.443 14.0032 14.9953 14.0032C15.5476 14.0032 15.9953 13.5555 15.9953 13.0032C15.9953 12.451 15.5476 12.0033 14.9953 12.0033ZM3.99393 12.8548C7.21255 14.4649 10.4298 16.0758 13.6477 17.6866C14.4931 18.1098 15.4975 18.1098 16.3429 17.6866C19.5609 16.0758 22.7799 14.4649 25.9986 12.8548V23.0008C25.9986 23.572 25.5641 24.0046 24.9928 24.0046H4.99779C4.42656 24.0046 3.99393 23.572 3.99393 23.0008V12.8548Z" fill="#A31D00"/>
</svg>
